<?xml version="1.1"?>
<svg version="1.1" baseProfile="full" width="800" height="600" xmlns="http://www.w3.org/2000/svg"><polyline stroke="#000000" stroke-width="1" stroke-linecap="round" stroke-linejoin="round" fill="none" points="248.88888549804688 75.88888549804688 248.88888549804688 75.88888549804688 248.88888549804688 76.88888549804688 248.88888549804688 77.88888549804688 249.88888549804688 83.88888549804688 258.8888854980469 115.88888549804688 278.8888854980469 173.88888549804688 301.8888854980469 237.88888549804688 324.8888854980469 291.8888854980469 343.8888854980469 319.8888854980469 360.8888854980469 333.8888854980469 379.8888854980469 340.8888854980469 395.8888854980469 344.8888854980469 401.8888854980469 344.8888854980469 403.8888854980469 344.8888854980469"></polyline><polyline stroke="#000000" stroke-width="1" stroke-linecap="round" stroke-linejoin="round" fill="none" points="454.8888854980469 173.88888549804688 454.8888854980469 173.88888549804688 455.8888854980469 178.88888549804688 457.8888854980469 187.88888549804688 459.8888854980469 200.88888549804688 460.8888854980469 203.88888549804688 475.8888854980469 233.88888549804688 497.8888854980469 245.88888549804688 540.8888854980469 250.88888549804688 586.8888854980469 246.88888549804688 614.8888854980469 234.88888549804688 634.8888854980469 215.88888549804688 636.8888854980469 206.88888549804688 630.8888854980469 199.88888549804688 616.8888854980469 194.88888549804688 600.8888854980469 193.88888549804688 586.8888854980469 196.88888549804688 574.8888854980469 203.88888549804688 563.8888854980469 213.88888549804688 551.8888854980469 230.88888549804688 545.8888854980469 253.88888549804688 544.8888854980469 281.8888854980469 547.8888854980469 318.8888854980469 568.8888854980469 356.8888854980469 603.8888854980469 388.8888854980469 644.8888854980469 411.8888854980469 673.8888854980469 419.8888854980469 694.8888854980469 420.8888854980469 703.8888854980469 420.8888854980469"></polyline><polyline stroke="#000000" stroke-width="1" stroke-linecap="round" stroke-linejoin="round" fill="none" points="208.88888549804688 128.88888549804688 208.88888549804688 128.88888549804688 208.88888549804688 129.88888549804688 208.88888549804688 133.88888549804688 203.88888549804688 145.88888549804688 193.88888549804688 174.88888549804688 178.88888549804688 213.88888549804688 169.88888549804688 245.88888549804688 167.88888549804688 265.8888854980469 168.88888549804688 276.8888854980469 176.88888549804688 279.8888854980469 191.88888549804688 280.8888854980469 210.88888549804688 277.8888854980469 228.88888549804688 266.8888854980469 239.88888549804688 249.88888549804688 246.88888549804688 226.88888549804688 244.88888549804688 211.88888549804688 233.88888549804688 196.88888549804688 213.88888549804688 187.88888549804688 194.88888549804688 185.88888549804688 168.88888549804688 189.88888549804688 145.88888549804688 199.88888549804688 130.88888549804688 215.88888549804688 123.88888549804688 234.88888549804688 124.88888549804688 258.8888854980469 136.88888549804688 278.8888854980469 157.88888549804688 295.8888854980469 188.88888549804688 313.8888854980469 234.88888549804688 335.8888854980469 266.8888854980469 349.8888854980469 291.8888854980469 359.8888854980469 313.8888854980469 369.8888854980469 334.8888854980469 379.8888854980469 343.8888854980469 385.8888854980469 344.8888854980469 387.8888854980469 344.8888854980469 390.8888854980469 340.8888854980469 396.8888854980469 324.8888854980469 405.8888854980469 290.8888854980469 416.8888854980469 238.88888549804688 429.8888854980469 188.88888549804688 438.8888854980469 140.88888549804688 439.8888854980469 107.88888549804688 430.8888854980469 95.88888549804688 418.8888854980469 91.88888549804688 401.8888854980469 91.88888549804688 368.8888854980469 104.88888549804688 347.8888854980469 126.88888549804688 337.8888854980469 178.88888549804688 323.8888854980469 241.88888549804688 315.8888854980469 296.8888854980469 313.8888854980469 366.8888854980469 313.8888854980469 416.8888854980469 311.8888854980469 450.8888854980469 310.8888854980469 471.8888854980469 306.8888854980469 475.8888854980469 303.8888854980469 476.8888854980469 301.8888854980469"></polyline><polyline stroke="#ffffff" stroke-width="1" stroke-linecap="round" stroke-linejoin="round" fill="none" points="480.8888854980469 115.88888549804688 480.8888854980469 115.88888549804688"></polyline></svg>
